# ProBuilder 4.5.2
# https://unity3d.com/unity/features/worldbuilding/probuilder
# 10/28/2023 10:23:55 PM

mtllib ./BallPool.mtl
o BallPool

g BallPool
v -5 0.4 5
v -5 0.4 5.25
v -5.25 0.4 5.25
v -5.25 0.4 5
v 4.975 0.4 5
v 4.975 0.4 5.25
v 5.25 0.4 5
v 5.25 0.4 5.25
v -5.25 0.4 -5.25
v -5 0.4 -5.25
v -5 0.4 -5
v -5.25 0.4 -5
v 4.975 0.4 -5.25
v 4.975 0.4 -5
v 4.975 -0.4 -5
v 4.975 -0.4 5
v -5 -0.4 5
v -5 -0.4 -5
v 5.25 0.4 -5.25
v 5.25 0.4 -5
v -5 -0.4 -5.25
v 4.975 -0.4 -5.25
v -5.25 -0.4 5
v -5.25 -0.4 -5
v -5 -0.4 5.25
v -5.25 -0.4 5.25
v -5.25 -0.4 -5.25
v 5.25 -0.4 -5.25
v 5.25 -0.4 -5
v 5.25 -0.4 5
v 5.25 -0.4 5.25
v 4.975 -0.4 5.25

vt 0.08220135 0.9772568
vt 0.08220135 0.9776612
vt 0.08260569 0.9776612
vt 0.08260569 0.9772568
vt 0.06606806 0.9772568
vt 0.06606806 0.9776612
vt 0.06562328 0.9772568
vt 0.06562328 0.9776612
vt 0.08260569 0.9606788
vt 0.08220135 0.9606788
vt 0.08220135 0.9610831
vt 0.08260569 0.9610831
vt 0.06606806 0.9606788
vt 0.06606806 0.9610831
vt 0.06562328 0.9606788
vt 0.06562328 0.9610831
vt 0.08220135 0.968523
vt 0.06606806 0.968523
vt 0.08220135 0.9698169
vt 0.06606806 0.9698169
vt 0.06562328 0.968523
vt 0.06562328 0.9698169
vt 0.08260569 0.968523
vt 0.08260569 0.9698169

vn 0 1 0
vn 0 0 -1
vn 1 0 0
vn -1 0 0
vn 0 0 1

usemtl MPalette
f 3/3/1 2/2/1 1/1/1 4/4/1
f 2/2/1 6/6/1 5/5/1 1/1/1
f 6/6/1 8/8/1 7/7/1 5/5/1
f 12/12/1 11/11/1 10/10/1 9/9/1
f 4/4/1 1/1/1 11/11/1 12/12/1
f 11/11/1 14/14/1 13/13/1 10/10/1
f 17/1/1 16/5/1 15/14/1 18/11/1
f 14/14/1 20/16/1 19/15/1 13/13/1
f 5/5/1 7/7/1 20/16/1 14/14/1
f 10/19/2 13/20/2 22/18/2 21/17/2
f 11/19/3 1/20/3 17/18/3 18/17/3
f 4/19/4 12/20/4 24/18/4 23/17/4
f 2/20/5 3/22/5 26/21/5 25/18/5
f 9/24/2 10/19/2 21/17/2 27/23/2
f 14/19/5 11/20/5 18/18/5 15/17/5
f 12/20/4 9/22/4 27/21/4 24/18/4
f 19/24/3 20/19/3 29/17/3 28/23/3
f 13/20/2 19/22/2 28/21/2 22/18/2
f 5/19/4 14/20/4 15/18/4 16/17/4
f 20/19/3 7/20/3 30/18/3 29/17/3
f 3/24/4 4/19/4 23/17/4 26/23/4
f 7/20/3 8/22/3 31/21/3 30/18/3
f 8/24/5 6/19/5 32/17/5 31/23/5
f 1/19/2 5/20/2 16/18/2 17/17/2
f 6/19/5 2/20/5 25/18/5 32/17/5

