# Blender v2.91.2 OBJ File: 'shatters.blend'
# www.blender.org
mtllib ball-fracture4.mtl
o ball-fracture4_Icosphere_cell.241
v -0.261745 -0.070570 0.942084
v -0.002408 0.359691 1.154008
v 0.218933 0.239612 1.215982
v -0.251426 -0.119721 0.933879
v 0.168202 0.305786 1.211167
v -0.272692 -0.096826 0.936784
v 0.220835 0.246424 1.225718
v 0.212729 0.280680 1.248854
v 0.003907 0.106161 1.283925
v 0.121832 0.265662 1.310560
v 0.108385 0.265706 1.314947
v 0.076771 0.265749 1.325237
v 0.151330 0.097357 1.202224
v -0.006998 0.083567 1.277130
v 0.178156 0.160925 1.223353
v 0.163080 0.248932 1.279820
v 0.158491 0.268268 1.292893
v -0.199306 -0.162785 1.085466
v -0.256768 -0.210006 1.014925
v -0.155204 -0.255460 0.942910
v -0.166495 -0.250626 0.950581
v -0.153332 -0.114847 1.136510
v -0.191557 -0.154672 1.094114
v 0.009832 -0.150328 1.034656
v 0.064034 -0.114846 1.065882
v 0.078315 -0.099996 1.075433
v -0.010561 0.077756 1.274168
v 0.095924 -0.065968 1.094549
v 0.090467 -0.080580 1.085190
vt 0.428906 0.500000
vt 0.428906 0.500000
vt 0.428906 0.500000
vt 0.428906 0.500000
vt 0.428906 0.500000
vt 0.428906 0.500000
vt 0.428906 0.500000
vt 0.428906 0.500000
vt 0.428906 0.500000
vt 0.428906 0.500000
vt 0.428906 0.500000
vt 0.428906 0.500000
vt 0.428906 0.500000
vt 0.428906 0.500000
vt 0.428906 0.500000
vt 0.428906 0.500000
vt 0.428906 0.500000
vt 0.428906 0.500000
vt 0.428906 0.500000
vt 0.428906 0.500000
vt 0.428906 0.500000
vt 0.428906 0.500000
vt 0.428906 0.500000
vt 0.428906 0.500000
vt 0.428906 0.500000
vt 0.428906 0.500000
vt 0.428906 0.500000
vt 0.428906 0.500000
vt 0.428906 0.500000
vn 0.8757 0.0086 -0.4827
vn 0.8087 0.4765 0.3447
vn 0.9936 0.0407 0.1054
vn 0.4426 0.8273 -0.3460
vn -0.1405 -0.1340 -0.9810
vn -0.3477 0.8903 -0.2940
vn -0.8432 0.1635 -0.5121
vn -0.6262 0.5685 -0.5335
vn 0.2895 0.3601 0.8869
vn -0.1605 0.3473 0.9239
vn -0.2932 -0.1405 0.9456
vn 0.3630 0.3099 0.8787
vn 0.5338 -0.3852 0.7527
vn 0.4587 0.3068 0.8339
vn -0.2899 -0.2300 0.9290
vn 0.6635 -0.5123 0.5453
vn 0.6969 -0.4558 0.5537
vn 0.1863 -0.8254 -0.5329
vn -0.4730 -0.4216 0.7736
vn -0.7675 -0.5860 0.2597
vn -0.4220 -0.9056 -0.0425
vn 0.6451 -0.6654 -0.3755
vn 0.7314 -0.6259 -0.2707
vn -0.4246 -0.3818 0.8209
vn -0.4617 -0.4015 0.7909
vn 0.8069 -0.5476 -0.2214
vn -0.3354 -0.2882 0.8969
vn 0.7074 -0.5487 0.4455
vn 0.8780 -0.4252 -0.2196
usemtl MPalette
s 1
f 3/1/1 8/2/2 7/3/3
f 5/4/4 8/2/2 3/1/1
f 4/5/5 5/4/4 3/1/1
f 4/5/5 2/6/6 5/4/4
f 6/7/7 1/8/8 4/5/5
f 1/8/8 2/6/6 4/5/5
f 11/9/9 12/10/10 9/11/11 10/12/12
f 16/13/13 17/14/14 10/12/12 9/11/11 14/15/15 13/16/16 15/17/17
f 20/18/18 18/19/19 19/20/20 21/21/21
f 18/19/19 20/18/18 24/22/22 25/23/23 22/24/24 23/25/25
f 25/23/23 26/26/26 27/27/27 22/24/24
f 28/28/28 13/16/16 14/15/15 27/27/27 26/26/26 29/29/29
f 8/2/2 17/14/14 16/13/13 7/3/3
f 16/13/13 15/17/17 7/3/3
f 13/16/16 28/28/28 7/3/3 15/17/17
f 28/28/28 29/29/29 3/1/1 7/3/3
f 25/23/23 24/22/22 3/1/1 29/29/29 26/26/26
f 4/5/5 3/1/1 24/22/22 20/18/18
f 5/4/4 11/9/9 10/12/12 17/14/14 8/2/2
f 11/9/9 5/4/4 2/6/6 12/10/10
f 20/18/18 21/21/21 6/7/7
f 4/5/5 20/18/18 6/7/7
f 18/19/19 23/25/25 1/8/8 6/7/7
f 19/20/20 18/19/19 6/7/7
f 21/21/21 19/20/20 6/7/7
f 14/15/15 9/11/11 12/10/10 2/6/6 1/8/8 23/25/25 22/24/24 27/27/27
