# ProBuilder 4.5.2
# https://unity3d.com/unity/features/worldbuilding/probuilder
# 10/31/2023 12:27:41 AM

mtllib ./FinishPlate-pink.mtl
o FinishPlate-pink

g FinishPlate
v 1.25 0 1.25
v -1.25 0 1.25
v 1.25 0.05 1.25
v -1.25 0.05 1.25
v -1.25 0 -1.25
v -1.25 0.05 -1.25
v 1.25 0 -1.25
v 1.25 0.05 -1.25

vt 0.07598988 0.9878023
vt 0.05836598 0.9878023
vt 0.07598988 0.9881548
vt 0.05836598 0.9881548
vt 0.09361378 0.9878023
vt 0.09361378 0.9881548
vt 0.07598988 0.9701784
vt 0.09361378 0.9701784
vt 0.05836598 0.9701784

vn 0 0 1
vn -1 0 0
vn 0 0 -1
vn 1 0 0
vn 0 1 0
vn 0 -1 0

usemtl MPalette
f 3/3/1 4/4/1 2/2/1 1/1/1
f 4/3/2 6/4/2 5/2/2 2/1/2
f 6/6/3 8/3/3 7/1/3 5/5/3
f 8/6/4 3/3/4 1/1/4 7/5/4
f 8/7/5 6/8/5 4/5/5 3/1/5
f 1/1/6 2/2/6 5/9/6 7/7/6

