# ProBuilder 4.5.2
# https://unity3d.com/unity/features/worldbuilding/probuilder
# 10/31/2023 12:25:33 AM

mtllib ./FinishPlate-green.mtl
o FinishPlate-green

g FinishPlate
v 1.25 0 1.25
v -1.25 0 1.25
v 1.25 0.05 1.25
v -1.25 0.05 1.25
v -1.25 0 -1.25
v -1.25 0.05 -1.25
v 1.25 0 -1.25
v 1.25 0.05 -1.25

vt 0.02362509 0.9800419
vt 0.006001189 0.9800419
vt 0.04124899 0.9800419
vt 0.02362509 0.962418
vt 0.04124899 0.962418
vt 0.006001189 0.962418

vn 0 0 1
vn -1 0 0
vn 0 0 -1
vn 1 0 0
vn 0 1 0
vn 0 -1 0

usemtl MPalette
f 3/1/1 4/2/1 2/2/1 1/1/1
f 4/1/2 6/2/2 5/2/2 2/1/2
f 6/3/3 8/1/3 7/1/3 5/3/3
f 8/3/4 3/1/4 1/1/4 7/3/4
f 8/4/5 6/5/5 4/3/5 3/1/5
f 1/1/6 2/2/6 5/6/6 7/4/6

