# ProBuilder 4.5.2
# https://unity3d.com/unity/features/worldbuilding/probuilder
# 10/30/2023 6:14:13 PM

mtllib ./VaneUpgrade.mtl
o VaneUpgrade

g VaneUpgrade
v -0.25 -0.22 0
v -0.25 0.22 0
v -0.2349232 -0.22 0.08550503
v -0.2349232 0.22 0.08550503
v -0.7285576 -0.22 0.370505
v -0.7285576 0.22 0.370505
v -0.6851456 -0.22 0.4456969
v -0.6851456 0.22 0.4456969
v -0.1915111 -0.22 0.1606969
v -0.1915111 0.22 0.1606969
v -0.125 -0.22 0.2165064
v -0.125 0.22 0.2165064
v -0.04341206 -0.22 0.2462019
v -0.04341206 0.22 0.2462019
v 0.04341206 -0.22 0.2462019
v 0.04341206 0.22 0.2462019
v 0.125 -0.22 0.2165063
v 0.125 0.22 0.2165063
v 0.1915111 -0.22 0.1606969
v 0.1915111 0.22 0.1606969
v 0.2349232 -0.22 0.08550505
v 0.2349232 0.22 0.08550505
v 0.25 -0.22 -2.185569E-08
v 0.25 0.22 -2.185569E-08
v 0.2349232 -0.22 -0.08550504
v 0.2349232 0.22 -0.08550504
v 0.7285576 -0.22 -0.370505
v 0.7285576 0.22 -0.370505
v 0.6851456 -0.22 -0.4456969
v 0.6851456 0.22 -0.4456969
v 0.1915111 -0.22 -0.1606969
v 0.1915111 0.22 -0.1606969
v 0.125 -0.22 -0.2165064
v 0.125 0.22 -0.2165064
v 0.04341203 -0.22 -0.2462019
v 0.04341203 0.22 -0.2462019
v -0.04341203 -0.22 -0.2462019
v -0.04341203 0.22 -0.2462019
v -0.125 -0.22 -0.2165064
v -0.125 0.22 -0.2165064
v -0.1915111 -0.22 -0.1606969
v -0.1915111 0.22 -0.1606969
v -0.2349231 -0.22 -0.08550509
v -0.2349231 0.22 -0.08550509
v 0 -0.22 0
v 0 0.22 0

vt 0.4172472 0.9397504
vt 0.4172472 0.9497464
vt 0.4192197 0.9397504
vt 0.4192197 0.9497464
vt 0.07818081 0.9398978
vt 0.07818081 0.9544376
vt 0.08104988 0.9398978
vt 0.08104988 0.9544376
vt 0.4315958 0.9400815
vt 0.4315958 0.9500776
vt 0.4335683 0.9400815
vt 0.4335683 0.9500776
vt 0.4279535 0.9513397
vt 0.4279535 0.9613357
vt 0.429926 0.9513397
vt 0.429926 0.9613357
vt 0.4200066 0.9611629
vt 0.4200066 0.9711589
vt 0.4219791 0.9611629
vt 0.4219791 0.9711589
vt 0.4280639 0.9620459
vt 0.4280639 0.972042
vt 0.4300364 0.9620459
vt 0.4300364 0.972042
vt 0.4308232 0.9520019
vt 0.4308232 0.9619979
vt 0.4327957 0.9520019
vt 0.4327957 0.9619979
vt 0.4232074 0.9403023
vt 0.4232074 0.9502983
vt 0.4251799 0.9403023
vt 0.4251799 0.9502983
vt 0.4200066 0.9395297
vt 0.4200066 0.9495257
vt 0.4219791 0.9395297
vt 0.4219791 0.9495257
vt 0.4289469 0.9399711
vt 0.4289469 0.9499672
vt 0.4309193 0.9399711
vt 0.4309193 0.9499672
vt 0.07349878 0.9392594
vt 0.07349878 0.9537991
vt 0.07636785 0.9392594
vt 0.07636785 0.9537991
vt 0.4227659 0.9618251
vt 0.4227659 0.9718212
vt 0.4247384 0.9618251
vt 0.4247384 0.9718212
vt 0.4251941 0.9512292
vt 0.4251941 0.9612253
vt 0.4271666 0.9512292
vt 0.4271666 0.9612253
vt 0.4259668 0.9401919
vt 0.4259668 0.9501879
vt 0.4279393 0.9401919
vt 0.4279393 0.9501879
vt 0.4307128 0.9625977
vt 0.4307128 0.9725938
vt 0.4326853 0.9625977
vt 0.4326853 0.9725938
vt 0.4228763 0.9513397
vt 0.4228763 0.9613357
vt 0.4248488 0.9513397
vt 0.4248488 0.9613357
vt 0.4198962 0.9501255
vt 0.4198962 0.9601216
vt 0.4218687 0.9501255
vt 0.4218687 0.9601216
vt 0.4251941 0.9619355
vt 0.4251941 0.9719316
vt 0.4271666 0.9619355
vt 0.4271666 0.9719316
vt 0.4192055 0.9829304
vt 0.4239053 0.9829304
vt 0.419489 0.9845378
vt 0.4286855 0.9730678
vt 0.4239858 0.9730678
vt 0.4284021 0.9746751
vt 0.4203051 0.9859514
vt 0.427586 0.9760886
vt 0.4215554 0.9870006
vt 0.4263357 0.9771378
vt 0.4230891 0.9875587
vt 0.4248019 0.9776961
vt 0.4247214 0.9875587
vt 0.4231697 0.9776961
vt 0.4262551 0.9870006
vt 0.421636 0.9771378
vt 0.4275054 0.9859514
vt 0.4203857 0.9760886
vt 0.4283215 0.9845378
vt 0.4195696 0.9746751
vt 0.428605 0.9829304
vt 0.4192861 0.9730678
vt 0.4283215 0.9813231
vt 0.4195696 0.9714603
vt 0.4275054 0.9799095
vt 0.4203857 0.9700468
vt 0.4262551 0.9788604
vt 0.421636 0.9689976
vt 0.4247214 0.9783021
vt 0.4231697 0.9684395
vt 0.4230891 0.9783021
vt 0.4248019 0.9684395
vt 0.4215554 0.9788604
vt 0.4263357 0.9689976
vt 0.4203051 0.9799095
vt 0.427586 0.9700468
vt 0.419489 0.9813231
vt 0.4284021 0.9714603
vt 0.07568903 0.9574775
vt 0.07568903 0.9626472
vt 0.08238611 0.9574775
vt 0.08238611 0.9626472
vt 0.07740669 0.9776701
vt 0.07767168 0.978129
vt 0.08041988 0.9759304
vt 0.08068488 0.9763894
vt 0.07251465 0.978129
vt 0.07277964 0.9776701
vt 0.06950145 0.9763894
vt 0.06976645 0.9759304
vt 0.07512113 0.9624752
vt 0.07512113 0.9573055
vt 0.06842404 0.9624752
vt 0.06842404 0.9573055
vt 0.07525659 0.9633769
vt 0.07525659 0.9685467
vt 0.08195368 0.9633769
vt 0.08195368 0.9685467
vt 0.07506868 0.9796319
vt 0.07480369 0.9791729
vt 0.07205547 0.9813716
vt 0.07179049 0.9809126
vt 0.07767168 0.9791729
vt 0.07740669 0.9796319
vt 0.08068488 0.9809126
vt 0.08041988 0.9813716
vt 0.0746887 0.9683747
vt 0.0746887 0.963205
vt 0.06799161 0.9683747
vt 0.06799161 0.963205

vn -1 0 -1.513104E-08
vn -0.9848078 0 0.1736482
vn -0.8660254 0 0.5
vn -0.6427878 0 0.7660444
vn -0.5 0 0.8660254
vn -0.1736481 0 0.9848078
vn 0.1736482 0 0.9848078
vn 0.5000001 0 0.8660254
vn 0.7660444 0 0.6427877
vn 0.9396926 0 0.3420202
vn 1 0 -6.052414E-08
vn 0.9848077 0 -0.1736482
vn 0.8660254 0 -0.5
vn 0.6427875 0 -0.7660446
vn 0.5 0 -0.8660254
vn 0.1736481 0 -0.9848078
vn -0.1736482 0 -0.9848078
vn -0.4999999 0 -0.8660254
vn -0.7660443 0 -0.6427878
vn -0.9396926 0 -0.3420203
vn 0 -1 0
vn 0 1 0
vn 0.5 0 0.8660254
vn -0.5 0 -0.8660254

usemtl MPalette
f 1/73/21 45/74/21 3/75/21
f 3/75/21 45/74/21 9/79/21
f 9/79/21 45/74/21 11/81/21
f 11/81/21 45/74/21 13/83/21
f 13/83/21 45/74/21 15/85/21
f 15/85/21 45/74/21 17/87/21
f 17/87/21 45/74/21 19/89/21
f 19/89/21 45/74/21 21/91/21
f 21/91/21 45/74/21 23/93/21
f 23/93/21 45/74/21 25/95/21
f 25/95/21 45/74/21 31/97/21
f 31/97/21 45/74/21 33/99/21
f 33/99/21 45/74/21 35/101/21
f 35/101/21 45/74/21 37/103/21
f 37/103/21 45/74/21 39/105/21
f 39/105/21 45/74/21 41/107/21
f 41/107/21 45/74/21 43/109/21
f 43/109/21 45/74/21 1/73/21
f 4/78/22 46/77/22 2/76/22
f 10/80/22 46/77/22 4/78/22
f 12/82/22 46/77/22 10/80/22
f 14/84/22 46/77/22 12/82/22
f 16/86/22 46/77/22 14/84/22
f 18/88/22 46/77/22 16/86/22
f 20/90/22 46/77/22 18/88/22
f 22/92/22 46/77/22 20/90/22
f 24/94/22 46/77/22 22/92/22
f 26/96/22 46/77/22 24/94/22
f 32/98/22 46/77/22 26/96/22
f 34/100/22 46/77/22 32/98/22
f 36/102/22 46/77/22 34/100/22
f 38/104/22 46/77/22 36/102/22
f 40/106/22 46/77/22 38/104/22
f 42/108/22 46/77/22 40/106/22
f 44/110/22 46/77/22 42/108/22
f 2/76/22 46/77/22 44/110/22
f 4/4/2 2/2/1 1/1/1
f 1/1/1 3/3/2 4/4/2
f 8/8/3 6/6/3 5/5/3
f 5/5/3 7/7/3 8/8/3
f 12/12/5 10/10/4 9/9/4
f 9/9/4 11/11/5 12/12/5
f 14/16/6 12/14/5 11/13/5
f 11/13/5 13/15/6 14/16/6
f 16/20/7 14/18/6 13/17/6
f 13/17/6 15/19/7 16/20/7
f 18/24/8 16/22/7 15/21/7
f 15/21/7 17/23/8 18/24/8
f 20/28/9 18/26/8 17/25/8
f 17/25/8 19/27/9 20/28/9
f 22/32/10 20/30/9 19/29/9
f 19/29/9 21/31/10 22/32/10
f 24/36/11 22/34/10 21/33/10
f 21/33/10 23/35/11 24/36/11
f 26/40/12 24/38/11 23/37/11
f 23/37/11 25/39/12 26/40/12
f 30/44/13 28/42/13 27/41/13
f 27/41/13 29/43/13 30/44/13
f 34/48/15 32/46/14 31/45/14
f 31/45/14 33/47/15 34/48/15
f 36/52/16 34/50/15 33/49/15
f 33/49/15 35/51/16 36/52/16
f 38/56/17 36/54/16 35/53/16
f 35/53/16 37/55/17 38/56/17
f 40/60/18 38/58/17 37/57/17
f 37/57/17 39/59/18 40/60/18
f 42/64/19 40/62/18 39/61/18
f 39/61/18 41/63/19 42/64/19
f 44/68/20 42/66/19 41/65/19
f 41/65/19 43/67/20 44/68/20
f 2/72/1 44/70/20 43/69/20
f 43/69/20 1/71/1 2/72/1
f 28/114/23 26/112/23 25/111/23
f 25/111/23 27/113/23 28/114/23
f 27/118/21 25/116/21 31/115/21
f 31/115/21 29/117/21 27/118/21
f 30/122/22 32/120/22 26/119/22
f 26/119/22 28/121/22 30/122/22
f 29/126/18 31/124/18 32/123/18
f 32/123/18 30/125/18 29/126/18
f 6/130/24 4/128/24 3/127/24
f 3/127/24 5/129/24 6/130/24
f 5/134/21 3/132/21 9/131/21
f 9/131/21 7/133/21 5/134/21
f 8/138/22 10/136/22 4/135/22
f 4/135/22 6/137/22 8/138/22
f 7/142/8 9/140/8 10/139/8
f 10/139/8 8/141/8 7/142/8

