# ProBuilder 4.5.2
# https://unity3d.com/unity/features/worldbuilding/probuilder
# 10/29/2023 3:55:41 AM

mtllib ./Ball.mtl
o Ball

g Ball
v 0.1314328 0.4626627 0
v 0.2022543 0.375 0.07725424
v 0.07725424 0.4522542 0.125
v 0.2126627 0.25 0.1314328
v 0.125 0.3272542 0.2022543
v 0 0.3814328 0.2126627
v 0 0.5 0
v -0.07725424 0.4522542 0.125
v -0.1314328 0.4626627 0
v 0.07725424 0.4522542 -0.125
v -0.07725424 0.4522542 -0.125
v 0 0.3814328 -0.2126627
v 0.2022543 0.375 -0.07725424
v 0.125 0.3272542 -0.2022543
v 0.2126627 0.25 -0.1314328
v 0.25 0.25 0
v -0.2022543 0.375 0.07725424
v -0.125 0.3272542 0.2022543
v -0.2126627 0.25 0.1314328
v 0 0.25 0.25
v 0.125 0.1727458 0.2022543
v 0 0.1185672 0.2126627
v 0.2022543 0.125 0.07725424
v 0.2022543 0.125 -0.07725424
v 0.1314328 0.0373373 0
v 0.125 0.1727458 -0.2022543
v 0 0.25 -0.25
v 0 0.1185672 -0.2126627
v -0.125 0.3272542 -0.2022543
v -0.2022543 0.375 -0.07725424
v -0.2126627 0.25 -0.1314328
v -0.1314328 0.0373373 0
v -0.2022543 0.125 0.07725424
v -0.07725424 0.04774575 0.125
v -0.125 0.1727458 0.2022543
v 0 0 0
v 0.07725424 0.04774575 0.125
v -0.07725424 0.04774575 -0.125
v 0.07725424 0.04774575 -0.125
v -0.2022543 0.125 -0.07725424
v -0.125 0.1727458 -0.2022543
v -0.25 0.25 0

vt 0.4245893 0.9756684
vt 0.4236362 0.9767081
vt 0.4253185 0.9773507
vt 0.4253185 0.9807153
vt 0.4245893 0.979033
vt 0.4236362 0.9800727
vt 0.4290802 0.9807153
vt 0.4280405 0.9800727
vt 0.4273979 0.981755
vt 0.4263582 0.9808018
vt 0.4263582 0.9756684
vt 0.4263582 0.9785305
vt 0.4273979 0.9773507
vt 0.4281271 0.9756684
vt 0.4253185 0.9739861
vt 0.4273979 0.9739861
vt 0.4263582 0.9728063
vt 0.4236362 0.9746287
vt 0.4253185 0.981755
vt 0.4246759 0.9800727
vt 0.4236362 0.9807153
vt 0.4273979 0.9807153
vt 0.4290802 0.9800727
vt 0.4281271 0.979033
vt 0.4263582 0.9818951
vt 0.4263582 0.979033
vt 0.4290802 0.9767081
vt 0.4292203 0.979033
vt 0.4280405 0.9779932
vt 0.4263582 0.9772641
vt 0.4263582 0.9761709
vt 0.4234961 0.979033
vt 0.4246759 0.9779932
vt 0.4290802 0.9746287
vt 0.4290802 0.9779932
vt 0.4236362 0.9773507
vt 0.4253185 0.976311
vt 0.4273979 0.976311
vt 0.4290802 0.9773507
vt 0.4236362 0.9779932

vn 0.2628655 0.4253254 0
vn 0.4045085 0.25 0.1545085
vn 0.1545085 0.4045085 0.25
vn 0.4253254 0 0.2628656
vn 0.25 0.1545085 0.4045085
vn 0 0.2628656 0.4253254
vn 0 0.5 0
vn -0.1545085 0.4045085 0.25
vn -0.2628655 0.4253254 0
vn 0.1545085 0.4045085 -0.25
vn -0.1545085 0.4045085 -0.25
vn 3.158624E-09 0.2628656 -0.4253254
vn 0.4045085 0.25 -0.1545085
vn 0.25 0.1545085 -0.4045085
vn 0.4253254 3.158624E-09 -0.2628655
vn 0.5 2.64091E-09 0
vn -0.4045085 0.25 0.1545085
vn -0.25 0.1545085 0.4045085
vn -0.4253254 0 0.2628656
vn -5.28182E-09 0 0.5
vn 0.25 -0.1545085 0.4045085
vn 0 -0.2628656 0.4253254
vn 0.4045085 -0.25 0.1545085
vn 0.4045085 -0.25 -0.1545085
vn 0.2628655 -0.4253254 -3.158624E-09
vn 0.25 -0.1545085 -0.4045085
vn -5.28182E-09 0 -0.5
vn 0 -0.2628656 -0.4253254
vn -0.25 0.1545085 -0.4045085
vn -0.4045085 0.25 -0.1545085
vn -0.4253254 -3.158624E-09 -0.2628656
vn -0.2628655 -0.4253254 3.158624E-09
vn -0.4045085 -0.25 0.1545085
vn -0.1545085 -0.4045085 0.25
vn -0.25 -0.1545085 0.4045085
vn 0 -0.5 2.64091E-09
vn 0.1545085 -0.4045085 0.25
vn -0.1545085 -0.4045085 -0.25
vn 0.1545085 -0.4045085 -0.25
vn -0.4045085 -0.25 -0.1545085
vn -0.25 -0.1545085 -0.4045085
vn -0.5 -2.64091E-09 0

usemtl MPalette
f 3/3/3 2/2/2 1/1/1
f 5/6/5 4/5/4 2/4/2
f 3/9/3 5/8/5 2/7/2
f 6/10/6 5/8/5 3/9/3
f 7/11/7 3/3/3 1/1/1
f 8/13/8 6/12/6 3/3/3
f 7/11/7 8/13/8 3/3/3
f 9/14/9 8/13/8 7/11/7
f 10/15/10 7/11/7 1/1/1
f 11/16/11 9/14/9 7/11/7
f 10/15/10 11/16/11 7/11/7
f 12/17/12 11/16/11 10/15/10
f 13/18/13 10/15/10 1/1/1
f 14/20/14 12/10/12 10/19/10
f 13/21/13 14/20/14 10/19/10
f 15/24/15 14/23/14 13/22/13
f 2/4/2 13/22/13 1/25/1
f 16/26/16 15/24/15 13/22/13
f 2/4/2 16/26/16 13/22/13
f 4/5/4 16/26/16 2/4/2
f 17/27/17 8/13/8 9/14/9
f 18/20/18 6/10/6 8/19/8
f 17/21/17 18/20/18 8/19/8
f 19/24/19 18/23/18 17/22/17
f 20/26/20 5/8/5 6/10/6
f 21/29/21 4/28/4 5/8/5
f 20/26/20 21/29/21 5/8/5
f 22/30/22 21/29/21 20/26/20
f 23/3/23 16/26/16 4/5/4
f 24/13/24 15/24/15 16/26/16
f 23/3/23 24/13/24 16/26/16
f 25/31/25 24/13/24 23/3/23
f 26/33/26 14/20/14 15/32/15
f 27/26/27 12/10/12 14/20/14
f 26/33/26 27/26/27 14/20/14
f 28/30/28 27/26/27 26/33/26
f 29/8/29 11/9/11 12/10/12
f 30/34/30 9/14/9 11/16/11
f 29/8/29 30/7/30 11/9/11
f 31/5/31 30/4/30 29/6/29
f 34/3/34 33/2/33 32/1/32
f 35/35/35 19/24/19 33/13/33
f 34/37/34 35/33/35 33/36/33
f 22/30/22 35/33/35 34/37/34
f 36/11/36 34/3/34 32/1/32
f 37/13/37 22/12/22 34/3/34
f 36/11/36 37/13/37 34/3/34
f 25/14/25 37/13/37 36/11/36
f 38/15/38 36/11/36 32/1/32
f 39/16/39 25/14/25 36/11/36
f 38/15/38 39/16/39 36/11/36
f 28/17/28 39/16/39 38/15/38
f 40/18/40 38/15/38 32/1/32
f 41/29/41 28/30/28 38/38/38
f 40/39/40 41/29/41 38/38/38
f 31/5/31 41/40/41 40/3/40
f 33/13/33 40/3/40 32/31/32
f 42/26/42 31/5/31 40/3/40
f 33/13/33 42/26/42 40/3/40
f 19/24/19 42/26/42 33/13/33
f 20/26/20 35/33/35 22/30/22
f 18/20/18 19/32/19 35/33/35
f 20/26/20 18/20/18 35/33/35
f 6/10/6 18/20/18 20/26/20
f 23/27/23 37/13/37 25/14/25
f 21/29/21 22/30/22 37/38/37
f 23/39/23 21/29/21 37/38/37
f 4/5/4 21/40/21 23/3/23
f 26/33/26 39/37/39 28/30/28
f 24/34/24 25/14/25 39/16/39
f 26/33/26 24/36/24 39/37/39
f 15/24/15 24/13/24 26/35/26
f 29/8/29 41/29/41 31/28/31
f 27/26/27 28/30/28 41/29/41
f 29/8/29 27/26/27 41/29/41
f 12/10/12 27/26/27 29/8/29
f 17/22/17 42/26/42 19/24/19
f 30/4/30 31/5/31 42/26/42
f 17/22/17 30/4/30 42/26/42
f 9/25/9 30/4/30 17/22/17

